<?xml version="1.0" encoding="UTF-8"?>
<svg id="Layer_2" data-name="Layer 2" xmlns="http://www.w3.org/2000/svg" viewBox="0 0 800 732">
  <defs>
    <style>
      .cls-1 {
        fill: #0391fd;
      }

      .cls-2 {
        fill: #0f71d3;
      }
    </style>
  </defs>
  <g id="Capa_1" data-name="Capa 1">
    <g>
      <path class="cls-1" d="m606.9,219.71v291.6c0,37.54-30.44,67.99-67.99,67.99l-235.46.98-137.93,151.72v-151.72h-97.53c-37.54,0-67.99-30.44-67.99-67.99V220.69c0-37.54,30.44-67.99,67.99-67.99l470.91-.98c37.56,0,68,30.44,68,67.99Z"/>
      <path class="cls-2" d="m732.01.97l-470.91-.97c-37.56,0-68,30.44-68,67.99v84.44l345.81-.72c37.54,0,67.99,30.44,67.99,68v254.36l96.55,106.21v-151.72h28.57c37.54,0,67.99-30.44,67.99-67.99V68.97c0-37.56-30.44-68-67.99-68Z"/>
    </g>
  </g>
</svg>