<?xml version="1.0" encoding="UTF-8"?>
<svg id="Layer_2" data-name="Layer 2" xmlns="http://www.w3.org/2000/svg" viewBox="0 0 1560.9 591.74">
  <defs>
    <style>
      .cls-1 {
        letter-spacing: -.02em;
      }

      .cls-2 {
        letter-spacing: 0em;
      }

      .cls-3 {
        letter-spacing: -.02em;
      }

      .cls-4 {
        fill: #374151;
        font-family: Oswald-Bold, Oswald;
        font-size: 372.78px;
        font-weight: 700;
      }

      .cls-5 {
        fill: #4f46e5;
      }
    </style>
  </defs>
  <g id="Layer_1-2" data-name="Layer 1">
    <g>
      <g>
        <path class="cls-5" d="m560,336.64V105.39c0-57.96-47.43-105.39-105.39-105.39H105.39C47.43,0,0,47.43,0,105.39v231.24c0,55.06,42.78,100.52,96.64,104.97,0,0-15.61,121.38,3.82,121.38s147.06-120.99,147.06-120.99h207.09c58,0,105.38-47.41,105.38-105.36h0Zm-331.62,58.36l-13.6,12.8c-.23.23-26.97,25.52-57.22,52.37-6.64,5.85-12.66,11.16-18.21,16,1.49-16.31,3.05-28.56,3.05-28.72l6.25-48.62-48.94-4.06c-30.1-2.5-53.7-28.1-53.7-58.22V105.46c0-15.53,6.1-30.13,17.28-41.21,11.1-11.08,25.8-17.25,41.27-17.25h349.9c15.56,0,30.17,6.09,41.27,17.25,11.1,11.08,17.28,25.75,17.28,41.21v231.09c0,15.53-6.1,30.13-17.28,41.21-11.1,11.08-25.8,17.25-41.27,17.25h-226.07Z"/>
        <path class="cls-5" d="m601.76,149.79c-12.69-2.58-25.14,5.56-27.73,18.25-2.58,12.69,5.56,25.14,18.25,27.73,30.55,6.27,52.72,33.45,52.72,64.62v138.65c0,32.59-24.36,60.71-56.63,65.33l-25.61,3.68,6.11,25.14c1.57,6.34,3.06,13.16,4.54,19.82-13.79-12.85-29.22-27.57-43.24-41.28l-6.82-6.74h-131.36c-17.16,0-28.67-1.1-36.97-6.74-10.73-7.28-25.38-4.54-32.66,6.19-7.28,10.73-4.54,25.38,6.19,32.66,20.13,13.71,43.32,14.88,63.45,14.88h112.17c7.83,7.6,21.38,20.6,35.25,33.53,12.69,11.83,23.19,21.23,31.18,28.12,15.67,13.32,22.95,18.09,32.59,18.09,7.6,0,14.65-3.45,19.43-9.48,7.91-10.11,7.99-22.79.39-61.65-1.1-5.64-2.27-11.12-3.37-16.14,42.61-16.53,72.38-58.2,72.38-105.44v-138.65c.08-53.27-37.91-99.8-90.24-110.61h0Z"/>
      </g>
      <text class="cls-4" transform="translate(773.71 424.06) scale(.76 1)"><tspan class="cls-1" x="0" y="0">S</tspan><tspan class="cls-2" x="185.64" y="0">P</tspan><tspan x="395.52" y="0">EE</tspan><tspan class="cls-3" x="728.78" y="0">K</tspan><tspan x="933.8" y="0">!</tspan></text>
    </g>
  </g>
</svg>