<?xml version="1.0" encoding="UTF-8"?>
<svg id="Layer_2" data-name="Layer 2" xmlns="http://www.w3.org/2000/svg" viewBox="0 0 1643 732.61">
  <defs>
    <style>
      .cls-1, .cls-2, .cls-3 {
        isolation: isolate;
      }

      .cls-2, .cls-3 {
        fill: #fff;
        font-family: Oswald-Bold, Oswald;
        font-size: 276.84px;
        font-weight: 700;
      }

      .cls-4 {
        fill: #0391fd;
      }

      .cls-3 {
        letter-spacing: -.04em;
      }

      .cls-5 {
        fill: #1e3a8a;
      }
    </style>
  </defs>
  <g id="Layer_2-2" data-name="Layer 2">
    <g>
      <g>
        <path class="cls-4" d="m606.99,220.04v291.88s-30.57,67.99-68.11,68.04h-235.46l-137.42,152.65v-151.65h-98.01c-37.55,0-67.99-30.44-67.99-67.99V221.02c0-37.58,30.45-68.05,68-68.05l470.99-.98c37.57,0,68.01,30.47,68.01,68.05h-.01Z"/>
        <path class="cls-5" d="m732.39.97l-471.16-.97c-37.69,0-68.24,30.55-68.24,68.23v84.74l345.7-.72c37.72,0,68.3,30.44,68.3,68v254.36l97,106.21v-151.85h28.01c37.55,0,67.99-30.44,67.99-67.99V69.03c0-37.59-30.27-68.07-67.6-68.07h0Z"/>
      </g>
      <g class="cls-1">
        <text class="cls-3" transform="translate(956.18 452.16)"><tspan x="0" y="0">S</tspan></text>
        <text class="cls-2" transform="translate(1093.21 452.16)"><tspan x="0" y="0">peek</tspan></text>
      </g>
    </g>
  </g>
</svg>